<svg width="40" height="40" viewBox="0 0 40 40" fill="none" xmlns="http://www.w3.org/2000/svg">
<g clip-path="url(#clip0_8_47)">
<path d="M12.4051 8.91667C13.4701 8.91667 14.4551 9.00001 15.3551 9.24667C16.1718 9.39675 16.9513 9.70472 17.6501 10.1533C18.3067 10.565 18.7984 11.1433 19.1251 11.885C19.4534 12.6267 19.6167 13.535 19.6167 14.5233C19.6167 15.6783 19.3717 16.6667 18.7984 17.4083C18.3067 18.1517 17.4867 18.81 16.5034 19.305C17.8967 19.7183 18.9617 20.46 19.6167 21.4483C20.2734 22.4383 20.6834 23.675 20.6834 25.0767C20.6834 26.2317 20.4367 27.22 20.0267 28.045C19.6167 28.87 18.9617 29.6117 18.2234 30.1067C17.4214 30.6373 16.5348 31.0273 15.6017 31.26C14.6184 31.5083 13.6351 31.6733 12.6517 31.6733H1.66675V8.91667H12.4051ZM11.7484 18.15C12.6501 18.15 13.3884 17.9033 13.9617 17.4917C14.5351 17.08 14.7817 16.3367 14.7817 15.43C14.7817 14.935 14.6984 14.44 14.5351 14.1117C14.3717 13.7817 14.1251 13.5333 13.7984 13.2867C13.4701 13.1217 13.1417 12.9567 12.7317 12.875C12.3217 12.7917 11.9134 12.7917 11.4201 12.7917H6.66675V18.1517H11.7501L11.7484 18.15ZM11.9951 27.88C12.4867 27.88 12.9784 27.7967 13.3884 27.715C13.8024 27.6363 14.1939 27.4673 14.5351 27.22C14.8691 26.9787 15.1485 26.6698 15.3551 26.3133C15.5184 25.9017 15.6834 25.4067 15.6834 24.83C15.6834 23.675 15.3551 22.85 14.7001 22.2733C14.0434 21.7783 13.1417 21.5317 12.0767 21.5317H6.66675V27.8817H11.9951V27.88ZM27.8151 27.7967C28.4701 28.4567 29.4534 28.7867 30.7651 28.7867C31.6667 28.7867 32.4867 28.54 33.1417 28.1283C33.7984 27.6333 34.2084 27.1383 34.3717 26.6433H38.3884C37.7318 28.6217 36.7484 30.0233 35.4384 30.93C34.1251 31.755 32.5684 32.25 30.6834 32.25C29.4774 32.2537 28.2814 32.0297 27.1584 31.59C26.1479 31.2109 25.2468 30.588 24.5351 29.7767C23.7739 29.0176 23.2113 28.0829 22.8967 27.055C22.4867 25.9833 22.3217 24.83 22.3217 23.51C22.3217 22.2733 22.4867 21.12 22.8967 20.0467C23.2909 19.0135 23.8742 18.0628 24.6167 17.2433C25.3551 16.5017 26.2567 15.8433 27.2401 15.43C28.3346 14.9901 29.5038 14.766 30.6834 14.77C32.0767 14.77 33.3067 15.0183 34.3717 15.595C35.4384 16.1717 36.2567 16.8317 36.9134 17.8217C37.5833 18.7726 38.0824 19.8328 38.3884 20.955C38.5518 22.1083 38.6334 23.2633 38.5517 24.5817H26.6667C26.6667 25.9017 27.1584 27.1383 27.8151 27.7983V27.7967ZM32.9784 19.14C32.4051 18.5633 31.5034 18.2333 30.4367 18.2333C29.7001 18.2333 29.1251 18.3983 28.6334 18.645C28.1417 18.8933 27.8151 19.2233 27.4867 19.5533C27.185 19.8721 26.9854 20.2737 26.9134 20.7067C26.8301 21.12 26.7484 21.4483 26.7484 21.7783H34.1251C33.9617 20.5417 33.5517 19.7183 32.9784 19.14ZM25.7651 10.4833H34.9451V12.71H25.7667V10.4833H25.7651Z" fill="white"/>
</g>
<defs>
<clipPath id="clip0_8_47">
<rect width="40" height="40" fill="white"/>
</clipPath>
</defs>
</svg>
