<svg width="221" height="39" viewBox="0 0 221 39" fill="none" xmlns="http://www.w3.org/2000/svg">
<path d="M0.333333 3C0.333333 4.47276 1.52724 5.66667 3 5.66667C4.47276 5.66667 5.66667 4.47276 5.66667 3C5.66667 1.52724 4.47276 0.333333 3 0.333333C1.52724 0.333333 0.333333 1.52724 0.333333 3ZM103 3H103.5V2.5H103V3ZM102.646 38.3536C102.842 38.5488 103.158 38.5488 103.354 38.3536L106.536 35.1716C106.731 34.9763 106.731 34.6597 106.536 34.4645C106.34 34.2692 106.024 34.2692 105.828 34.4645L103 37.2929L100.172 34.4645C99.9763 34.2692 99.6597 34.2692 99.4645 34.4645C99.2692 34.6597 99.2692 34.9763 99.4645 35.1716L102.646 38.3536ZM3 3.5H103V2.5H3V3.5ZM102.5 3V38H103.5V3H102.5Z" fill="#A7A7A7"/>
<path d="M220.667 3C220.667 4.47276 219.473 5.66667 218 5.66667C216.527 5.66667 215.333 4.47276 215.333 3C215.333 1.52724 216.527 0.333333 218 0.333333C219.473 0.333333 220.667 1.52724 220.667 3ZM118 3H117.5V2.5H118V3ZM118.354 38.3536C118.158 38.5488 117.842 38.5488 117.646 38.3536L114.464 35.1716C114.269 34.9763 114.269 34.6597 114.464 34.4645C114.66 34.2692 114.976 34.2692 115.172 34.4645L118 37.2929L120.828 34.4645C121.024 34.2692 121.34 34.2692 121.536 34.4645C121.731 34.6597 121.731 34.9763 121.536 35.1716L118.354 38.3536ZM218 3.5H118V2.5H218V3.5ZM118.5 3V38H117.5V3H118.5Z" fill="#A7A7A7"/>
</svg>
