<svg width="20" height="20" viewBox="0 0 20 20" fill="none" xmlns="http://www.w3.org/2000/svg">
<g clip-path="url(#clip0_145_117)">
<path d="M9.16699 1.66666C13.307 1.66666 16.667 5.02666 16.667 9.16666C16.667 13.3067 13.307 16.6667 9.16699 16.6667C5.02699 16.6667 1.66699 13.3067 1.66699 9.16666C1.66699 5.02666 5.02699 1.66666 9.16699 1.66666ZM9.16699 15C12.3895 15 15.0003 12.3892 15.0003 9.16666C15.0003 5.94332 12.3895 3.33332 9.16699 3.33332C5.94366 3.33332 3.33366 5.94332 3.33366 9.16666C3.33366 12.3892 5.94366 15 9.16699 15ZM16.2378 15.0592L18.5953 17.4158L17.4162 18.595L15.0595 16.2375L16.2378 15.0592Z" fill="white"/>
</g>
<defs>
<clipPath id="clip0_145_117">
<rect width="20" height="20" fill="white"/>
</clipPath>
</defs>
</svg>
