<svg width="25" height="24" viewBox="0 0 25 24" fill="none" xmlns="http://www.w3.org/2000/svg">
<g clip-path="url(#clip0_306_473)">
<path d="M18.1568 14.828L16.7428 13.414L18.1568 12C18.5282 11.6286 18.8229 11.1876 19.0239 10.7023C19.2249 10.217 19.3284 9.69681 19.3284 9.1715C19.3284 8.6462 19.2249 8.12605 19.0239 7.64073C18.8229 7.15542 18.5282 6.71445 18.1568 6.343C17.7853 5.97156 17.3444 5.67691 16.859 5.47589C16.3737 5.27487 15.8536 5.1714 15.3283 5.1714C14.803 5.1714 14.2828 5.27487 13.7975 5.47589C13.3122 5.67691 12.8712 5.97156 12.4998 6.343L11.0858 7.757L9.67177 6.343L11.0858 4.929C12.2141 3.81892 13.7353 3.19966 15.3181 3.2061C16.901 3.21255 18.4171 3.84418 19.5364 4.96341C20.6556 6.08265 21.2872 7.5988 21.2937 9.18162C21.3001 10.7644 20.6808 12.2857 19.5708 13.414L18.1568 14.828ZM15.3278 17.657L13.9138 19.071C13.3583 19.6356 12.6965 20.0846 11.9666 20.3922C11.2367 20.6998 10.4532 20.8598 9.66115 20.863C8.86911 20.8662 8.08428 20.7126 7.35191 20.411C6.61954 20.1094 5.95414 19.6658 5.39408 19.1057C4.83402 18.5456 4.39039 17.8802 4.08878 17.1479C3.78717 16.4155 3.63354 15.6307 3.63677 14.8386C3.63999 14.0466 3.8 13.263 4.10757 12.5331C4.41513 11.8033 4.86417 11.1415 5.42877 10.586L6.84277 9.172L8.25677 10.586L6.84277 12C6.47133 12.3714 6.17668 12.8124 5.97566 13.2977C5.77463 13.783 5.67117 14.3032 5.67117 14.8285C5.67117 15.3538 5.77463 15.874 5.97566 16.3593C6.17668 16.8446 6.47133 17.2856 6.84277 17.657C7.21421 18.0284 7.65518 18.3231 8.1405 18.5241C8.62581 18.7251 9.14597 18.8286 9.67127 18.8286C10.1966 18.8286 10.7167 18.7251 11.202 18.5241C11.6874 18.3231 12.1283 18.0284 12.4998 17.657L13.9138 16.243L15.3278 17.657ZM15.3278 7.757L16.7428 9.172L9.67177 16.242L8.25677 14.828L15.3278 7.758V7.757Z" fill="#FDFDFD"/>
</g>
<defs>
<clipPath id="clip0_306_473">
<rect width="24" height="24" fill="white" transform="translate(0.5)"/>
</clipPath>
</defs>
</svg>
