<svg width="24" height="24" viewBox="0 0 24 24" fill="none" xmlns="http://www.w3.org/2000/svg">
<path d="M12 2C6.5 2 2 6.5 2 12C2 17.5 6.5 22 12 22C17.5 22 22 17.5 22 12C22 6.5 17.5 2 12 2ZM12 20.7857C7.14286 20.7857 3.28571 16.8571 3.28571 12C3.28571 7.14286 7.14286 3.28571 12 3.28571C16.8571 3.28571 20.7857 7.21429 20.7857 12.0714C20.7857 16.8571 16.8571 20.7857 12 20.7857Z" fill="white" stroke="white" stroke-width="0.5"/>
<path d="M8.85742 15.1429L10.5003 14.5714L9.42885 13.5L8.85742 15.1429Z" fill="white"/>
<path d="M13.7859 9.07143L9.92871 12.9286L11.0001 14L14.8573 10.1429C15.143 9.85715 15.143 9.35715 14.8573 9.07143C14.5716 8.78572 14.0716 8.78572 13.7859 9.07143Z" fill="white"/>
</svg>
