<svg width="40" height="40" viewBox="0 0 40 40" fill="none" xmlns="http://www.w3.org/2000/svg">
<g clip-path="url(#clip0_8_41)">
<path d="M33.3149 19.2867C33.1783 16.6632 32.2658 14.1393 30.6933 12.035C30.2141 12.551 29.7019 13.0354 29.1599 13.485C27.4948 14.8681 25.6341 15.997 23.6383 16.835C23.9166 17.4183 24.1716 17.9833 24.3966 18.5167V18.5217C24.4601 18.6707 24.5212 18.8207 24.5799 18.9717C27.1033 18.6883 29.7633 18.7917 32.3416 19.14C32.6849 19.1867 33.0083 19.2367 33.3149 19.2867ZM17.6733 6.87C19.2975 9.15862 20.7953 11.5344 22.1599 13.9867C24.1982 13.1833 25.8833 12.17 27.2399 11.0417C27.7108 10.6535 28.1541 10.2331 28.5666 9.78333C26.1682 7.76619 23.1338 6.66222 19.9999 6.66666C19.22 6.66613 18.4415 6.73361 17.6733 6.86833V6.87ZM7.08825 16.6617C8.22363 16.633 9.35766 16.5646 10.4883 16.4567C13.221 16.2122 15.9304 15.7542 18.5916 15.0867C17.2008 12.6703 15.6992 10.3195 14.0916 8.04166C12.3744 8.89232 10.8604 10.1023 9.65199 11.5896C8.44363 13.0769 7.56928 14.8067 7.08825 16.6617ZM9.63825 28.3917C10.2849 27.4467 11.1349 26.3833 12.2633 25.2267C14.6866 22.7433 17.5466 20.81 20.8566 19.7433L20.9599 19.7133C20.6849 19.1067 20.4266 18.565 20.1666 18.055C17.1066 18.9467 13.8833 19.5033 10.6716 19.7917C9.10492 19.9333 7.69992 19.995 6.66659 20.005C6.66364 23.0593 7.71374 26.0213 9.63992 28.3917H9.63825ZM25.0083 32.3583C24.3655 29.1171 23.4558 25.9346 22.2883 22.8433C18.9516 24.055 16.2933 25.8267 14.2383 27.94C13.4089 28.7773 12.6729 29.7022 12.0433 30.6983C14.3413 32.413 17.1327 33.3374 19.9999 33.3333C21.7164 33.3358 23.4172 33.0058 25.0083 32.3617V32.3583ZM28.1299 30.5667C30.732 28.5663 32.5047 25.6762 33.1083 22.45C32.5416 22.3083 31.8233 22.1667 31.0333 22.0567C29.2768 21.8037 27.4946 21.7852 25.7333 22.0017C26.725 24.7997 27.5257 27.6618 28.1299 30.5683V30.5667ZM19.9999 36.6667C10.7949 36.6667 3.33325 29.205 3.33325 20C3.33325 10.795 10.7949 3.33333 19.9999 3.33333C29.2049 3.33333 36.6666 10.795 36.6666 20C36.6666 29.205 29.2049 36.6667 19.9999 36.6667Z" fill="white"/>
</g>
<defs>
<clipPath id="clip0_8_41">
<rect width="40" height="40" fill="white"/>
</clipPath>
</defs>
</svg>
