<svg width="24" height="24" viewBox="0 0 24 24" fill="none" xmlns="http://www.w3.org/2000/svg">
<path d="M10.89 3.00751C10.8391 3.0062 10.7884 3.01515 10.741 3.03381C10.6935 3.05248 10.6504 3.08048 10.614 3.11616C10.5776 3.15184 10.5488 3.19447 10.5292 3.24151C10.5096 3.28856 10.4997 3.33905 10.5 3.39001V4.87501C10.5 5.08501 10.665 5.25001 10.875 5.25001V5.26501C15.5475 5.44501 19.305 9.20251 19.485 13.875H19.5C19.5 14.085 19.665 14.25 19.875 14.25H21.36C21.5775 14.25 21.75 14.07 21.7425 13.86C21.54 7.96501 16.785 3.21001 10.89 3.00751ZM10.89 6.75751C10.8392 6.75692 10.7889 6.76635 10.7418 6.78527C10.6947 6.80419 10.6518 6.83222 10.6156 6.86776C10.5793 6.9033 10.5505 6.94564 10.5306 6.99236C10.5108 7.03908 10.5004 7.08926 10.5 7.14001V8.62501C10.5 8.83501 10.665 9.00001 10.875 9.00001V9.02251C13.4775 9.19501 15.555 11.2725 15.7275 13.875H15.75C15.75 14.085 15.915 14.25 16.125 14.25H17.61C17.82 14.25 18 14.07 17.9925 13.86C17.79 10.035 14.715 6.96001 10.89 6.75751ZM4.125 7.50001C3.915 7.50001 3.75 7.66501 3.75 7.87501V16.125C3.75 18.81 5.94 21 8.625 21C11.31 21 13.5 18.81 13.5 16.125C13.5 13.44 11.31 11.25 8.625 11.25C8.415 11.25 8.25 11.415 8.25 11.625V13.875C8.25 14.085 8.415 14.25 8.625 14.25C9.12228 14.25 9.59919 14.4476 9.95082 14.7992C10.3025 15.1508 10.5 15.6277 10.5 16.125C10.5 16.6223 10.3025 17.0992 9.95082 17.4508C9.59919 17.8025 9.12228 18 8.625 18C8.37877 18 8.13495 17.9515 7.90747 17.8573C7.67998 17.7631 7.47328 17.6249 7.29917 17.4508C7.12506 17.2767 6.98695 17.07 6.89273 16.8425C6.7985 16.6151 6.75 16.3712 6.75 16.125V7.87501C6.75 7.66501 6.585 7.50001 6.375 7.50001H4.125Z" fill="white"/>
</svg>
