<?xml version="1.0" encoding="UTF-8"?>
<svg width="700pt" height="700pt" version="1.1" viewBox="0 0 700 700" xmlns="http://www.w3.org/2000/svg">
 <g>
  <path d="m350 35c-134.75 0-245 110.25-245 245s110.25 245 245 245 245-110.25 245-245-110.25-245-245-245zm0 460.25c-119 0-213.5-96.25-213.5-215.25s94.5-213.5 213.5-213.5 215.25 96.25 215.25 215.25c0 117.25-96.25 213.5-215.25 213.5z"/>
  <path d="m273 357 40.25-14-26.25-26.25z"/>
  <path d="m393.75 208.25-94.5 94.5 26.25 26.25 94.5-94.5c7-7 7-19.25 0-26.25s-19.25-7-26.25 0z"/>
 </g>
</svg>
