<svg width="40" height="40" viewBox="0 0 40 40" fill="none" xmlns="http://www.w3.org/2000/svg">
<g clip-path="url(#clip0_8_44)">
<path d="M36.9368 9.42667C35.6644 9.98949 34.315 10.3591 32.9334 10.5233C34.3897 9.65239 35.4796 8.28169 36.0001 6.66667C34.6334 7.48 33.1351 8.05 31.5734 8.35833C30.5244 7.23596 29.134 6.49161 27.6183 6.24097C26.1027 5.99034 24.5467 6.24748 23.1922 6.97242C21.8377 7.69736 20.7607 8.84947 20.1286 10.2497C19.4965 11.6498 19.3447 13.2196 19.6968 14.715C16.9253 14.5761 14.214 13.8559 11.7389 12.6011C9.26382 11.3463 7.0803 9.58508 5.33009 7.43167C4.71057 8.49575 4.38501 9.70538 4.38675 10.9367C4.38675 13.3533 5.61675 15.4883 7.48675 16.7383C6.3801 16.7035 5.29781 16.4046 4.33009 15.8667V15.9533C4.33042 17.5628 4.88737 19.1227 5.9065 20.3684C6.92563 21.6142 8.34422 22.4691 9.92175 22.7883C8.89445 23.0667 7.81727 23.1078 6.77175 22.9083C7.21653 24.2937 8.08343 25.5053 9.25107 26.3735C10.4187 27.2417 11.8286 27.723 13.2834 27.75C11.8376 28.8855 10.1821 29.725 8.41156 30.2203C6.64106 30.7156 4.7903 30.8571 2.96509 30.6367C6.15125 32.6857 9.86025 33.7735 13.6484 33.77C26.4701 33.77 33.4818 23.1483 33.4818 13.9367C33.4818 13.6367 33.4734 13.3333 33.4601 13.0367C34.8249 12.0503 36.0028 10.8284 36.9384 9.42833L36.9368 9.42667Z" fill="white"/>
</g>
<defs>
<clipPath id="clip0_8_44">
<rect width="40" height="40" fill="white"/>
</clipPath>
</defs>
</svg>
